<?xml version="1.0" encoding="UTF-8"?><svg id="Laag_2" xmlns="http://www.w3.org/2000/svg" viewBox="0 0 217.7244 51.7003"><g id="Components"><g id="_8fb4dc5-9641-409a-9309-a62510dfab09_5"><g><polygon points="9.9257 0 24.1756 0 17.0507 9.985 9.9257 0" style="fill:#fdc62c;"/><polygon points="9.9257 0 9.9257 9.985 17.0507 9.985 9.9257 0" style="fill:#f8b131;"/><polygon points="17.0507 9.985 24.1756 0 24.1756 9.985 17.0507 9.985" style="fill:#ee7461;"/><polygon points="24.1756 24.235 9.9257 24.235 17.0507 9.985 24.1756 24.235" style="fill:#e84b93;"/><polygon points="24.1756 24.235 24.1756 9.985 17.0507 9.985 24.1756 24.235" style="fill:#cf1d5b;"/><polygon points="17.0507 9.985 9.9257 24.235 9.9257 9.985 17.0507 9.985" style="fill:#e94846;"/><polygon points="0 9.985 9.9257 9.985 9.9257 24.2349 0 9.985" style="fill:#f18407;"/><polygon points="9.9257 24.2349 0 24.2349 0 9.985 9.9257 24.2349" style="fill:#ed6e19;"/><polygon points="24.1756 24.2349 34.1013 24.2349 34.1013 9.985 24.1756 24.2349" style="fill:#e2071e;"/><polygon points="34.1013 9.985 24.1756 9.985 24.1756 24.2349 34.1013 9.985" style="fill:#b7154b;"/><polygon points="9.9257 24.2349 24.1673 34.7081 24.1756 24.2349 9.9257 24.2349" style="fill:#ee8ab7;"/><path d="M9.9257,24.2349l.0164,11.6646c.0231,1.2573,.1347,2.4396,.3303,3.5506l13.8948-4.742-14.2416-10.4732Z" style="fill:#8d6cac;"/><path d="M24.1673,34.7081l-13.8948,4.742c.5744,3.2621,1.8807,5.9036,3.8575,7.9766,1.389,1.5958,3.4984,2.7984,6.4838,3.5227l3.5535-16.2413Z" style="fill:#7c61a7;"/><path d="M20.616,50.95l14.127-11.4825c-4.4909,1.4807-7.7534,1.1467-9.5422-1.3642-.7017-.9849-1.0344-2.1859-1.0334-3.3952l-3.5535,16.2413,.0022,.0005Z" style="fill:#3b529f;"/><path d="M36.664,49.7147l-1.9211-10.2472-3.484,11.912c2.0707-.3129,3.8819-.8593,5.4051-1.6648Z" style="fill:#56afe3;"/><path d="M26.4611,51.7c1.726,.0073,3.3269-.0981,4.7978-.3204l3.484-11.912-14.1356,11.4804c1.668,.4053,3.6065,.663,5.8538,.752Z" style="fill:#37398c;"/></g><g><path d="M70.2224,14.6887v4.5195h-7.4395v23.4004h-5.5996V19.2082h-7.4404v-4.5195h20.4795Z" style="fill:#fff;"/><path d="M83.1023,19.2082v7h9.4004v4.4404h-9.4004v7.4004h10.6006v4.5596h-16.2002V14.6486h16.2002v4.5596h-10.6006Z" style="fill:#fff;"/><path d="M107.2029,41.8889c-1.5605-.667-2.7939-1.627-3.7002-2.8799-.9072-1.2539-1.374-2.7334-1.4004-4.4404h6c.0801,1.1465,.4863,2.0537,1.2197,2.7197,.7334,.667,1.7402,1,3.0205,1,1.3066,0,2.333-.3125,3.0801-.9395,.7461-.627,1.1201-1.4463,1.1201-2.46,0-.8262-.2539-1.5068-.7598-2.04-.5078-.5332-1.1406-.9531-1.9004-1.2598-.7598-.3066-1.8066-.6465-3.1396-1.0205-1.8145-.5332-3.2871-1.0596-4.4209-1.5801-1.1328-.5195-2.1064-1.3057-2.9199-2.3604-.8135-1.0527-1.2197-2.46-1.2197-4.2197,0-1.6533,.4131-3.0928,1.2402-4.3193,.8262-1.2266,1.9863-2.167,3.4795-2.8203s3.2002-.9805,5.1201-.9805c2.8799,0,5.2207,.7002,7.0205,2.1006,1.7998,1.3994,2.793,3.3535,2.9795,5.8594h-6.1602c-.0537-.96-.46-1.7529-1.2197-2.3799-.7598-.626-1.7666-.9395-3.0195-.9395-1.0938,0-1.9668,.2793-2.6201,.8398-.6543,.5596-.9805,1.374-.9805,2.4395,0,.7471,.2461,1.3672,.7402,1.8604,.4932,.4941,1.1064,.8936,1.8398,1.2002s1.7666,.6602,3.1006,1.0596c1.8125,.5342,3.293,1.0674,4.4395,1.6006,1.1465,.5332,2.1328,1.333,2.96,2.3994,.8262,1.0674,1.2402,2.4668,1.2402,4.2002,0,1.4941-.3867,2.8799-1.1602,4.1602-.7734,1.2803-1.9072,2.2998-3.3994,3.0596-1.4941,.7607-3.2676,1.1406-5.3203,1.1406-1.9473,0-3.7002-.333-5.2598-1Z" style="fill:#fff;"/><path d="M135.4226,41.049c-2.1875-1.2266-3.9199-2.9268-5.2002-5.1006-1.2803-2.1729-1.9199-4.6328-1.9199-7.3799,0-2.7197,.6396-5.166,1.9199-7.3398,1.2803-2.1729,3.0127-3.873,5.2002-5.1006,2.1855-1.2256,4.5859-1.8398,7.2002-1.8398,2.6396,0,5.0459,.6143,7.2197,1.8398,2.1729,1.2275,3.8926,2.9277,5.1602,5.1006,1.2656,2.1738,1.8994,4.6201,1.8994,7.3398,0,2.7471-.6338,5.207-1.8994,7.3799-1.2676,2.1738-2.9941,3.874-5.1807,5.1006-2.1865,1.2266-4.5869,1.8398-7.1992,1.8398-2.6143,0-5.0146-.6133-7.2002-1.8398Zm11.6396-4.3008c1.2803-.7598,2.2803-1.8457,3-3.2598,.7197-1.4131,1.0801-3.0527,1.0801-4.9199,0-1.8662-.3604-3.5-1.0801-4.9004-.7197-1.3994-1.7197-2.4727-3-3.2197-1.2803-.7461-2.7598-1.1201-4.4395-1.1201-1.6807,0-3.167,.374-4.4609,1.1201-1.293,.7471-2.2998,1.8203-3.0195,3.2197-.7197,1.4004-1.0801,3.0342-1.0801,4.9004,0,1.8672,.3604,3.5068,1.0801,4.9199,.7197,1.4141,1.7266,2.5,3.0195,3.2598,1.2939,.7607,2.7803,1.1406,4.4609,1.1406,1.6797,0,3.1592-.3799,4.4395-1.1406Z" style="fill:#fff;"/><path d="M184.9275,37.3439v5.2646h-1.7412c-4.0898,0-7.0459-1.6201-8.8691-4.8594l-3.2793-5.1025h-2.6328v9.9619h-5.5879V14.6662h12.1885c5.3867,0,9.4766,3.9277,9.4766,9.1514,0,4.2529-2.835,7.5732-6.9248,8.5449l2.1055,2.876c.9727,1.377,2.3896,2.1055,4.1309,2.1055h1.1338Zm-16.5225-9.5576h6.4795c2.1865,0,3.8477-1.7002,3.8477-3.9277s-1.6611-3.9277-3.8477-3.9277h-6.4795v7.8555Z" style="fill:#fff;"/><path d="M196.2439,41.049c-2.1865-1.2266-3.9199-2.9268-5.1992-5.1006-1.2803-2.1729-1.9199-4.6328-1.9199-7.3799,0-2.7197,.6396-5.166,1.9199-7.3398,1.2793-2.1729,3.0127-3.873,5.1992-5.1006,2.1865-1.2256,4.5869-1.8398,7.2002-1.8398,2.6406,0,5.0469,.6143,7.2207,1.8398,2.1729,1.2275,3.8926,2.9277,5.1592,5.1006,1.2666,2.1738,1.9004,4.6201,1.9004,7.3398,0,2.7471-.6338,5.207-1.9004,7.3799-1.2666,2.1738-2.9932,3.874-5.1797,5.1006-2.1865,1.2266-4.5869,1.8398-7.2002,1.8398s-5.0137-.6133-7.2002-1.8398Zm11.6406-4.3008c1.2803-.7598,2.2803-1.8457,3-3.2598,.7197-1.4131,1.0801-3.0527,1.0801-4.9199,0-1.8662-.3604-3.5-1.0801-4.9004-.7197-1.3994-1.7197-2.4727-3-3.2197-1.2803-.7461-2.7598-1.1201-4.4404-1.1201-1.6797,0-3.167,.374-4.46,1.1201-1.2939,.7471-2.2998,1.8203-3.0195,3.2197-.7207,1.4004-1.0801,3.0342-1.0801,4.9004,0,1.8672,.3594,3.5068,1.0801,4.9199,.7197,1.4141,1.7256,2.5,3.0195,3.2598,1.293,.7607,2.7803,1.1406,4.46,1.1406,1.6807,0,3.1602-.3799,4.4404-1.1406Z" style="fill:#fff;"/></g></g></g></svg>