<svg width="186" height="44" viewBox="0 0 186 44" fill="none" xmlns="http://www.w3.org/2000/svg">
<g clip-path="url(#clip0_4774_9589)">
<path d="M8.93359 0H21.0417L14.9877 8.49782L8.93359 0Z" fill="#FDC62C"/>
<path d="M8.93359 0V8.49782H14.9877L8.93359 0Z" fill="#F8B131"/>
<path d="M14.9883 8.49782L21.0423 0V8.49782H14.9883Z" fill="#EE7461"/>
<path d="M21.0417 20.6254H8.93359L14.9877 8.4978L21.0417 20.6254Z" fill="#E84B93"/>
<path d="M21.0423 20.6254V8.4978H14.9883L21.0423 20.6254Z" fill="#CF1D5B"/>
<path d="M14.9877 8.4978L8.93359 20.6254V8.4978H14.9877Z" fill="#E94846"/>
<path d="M0.5 8.4978H8.93385V20.6253L0.5 8.4978Z" fill="#F18407"/>
<path d="M8.93385 20.6253H0.5V8.4978L8.93385 20.6253Z" fill="#ED6E19"/>
<path d="M21.041 20.6253H29.4749V8.4978L21.041 20.6253Z" fill="#E2071E"/>
<path d="M29.4749 8.4978H21.041V20.6253L29.4749 8.4978Z" fill="#B7154B"/>
<path d="M8.93359 20.6253L21.0347 29.5386L21.0417 20.6253H8.93359Z" fill="#EE8AB7"/>
<path d="M8.93368 20.6253L8.94761 30.5526C8.96724 31.6226 9.06207 32.6288 9.22827 33.5743L21.0347 29.5386L8.93368 20.6253Z" fill="#8D6CAC"/>
<path d="M21.0349 29.5386L9.22852 33.5744C9.71658 36.3506 10.8265 38.5987 12.5062 40.3629C13.6865 41.721 15.4788 42.7445 18.0155 43.3609L21.0349 29.5386Z" fill="#7C61A7"/>
<path d="M18.0174 43.3615L30.0211 33.5892C26.2052 34.8493 23.433 34.5651 21.9131 32.4281C21.3169 31.5899 21.0342 30.5678 21.035 29.5386L18.0156 43.3609L18.0174 43.3615Z" fill="#3B529F"/>
<path d="M31.6533 42.3101L30.0209 33.5892L27.0605 43.727C28.82 43.4607 30.359 42.9957 31.6533 42.3101Z" fill="#56AFE3"/>
<path d="M22.9837 43.9997C24.4503 44.0059 25.8106 43.9162 27.0604 43.727L30.0208 33.5892L18.0098 43.3597C19.4271 43.7047 21.0742 43.924 22.9837 43.9997Z" fill="#37398C"/>
<path d="M60.167 12.5009V16.3473H53.8457V36.2624H49.0877V16.3473H42.7656V12.5009H60.167Z" fill="#18213B"/>
<path d="M71.1115 16.3473V22.3047H79.099V26.0837H71.1115V32.3819H80.1188V36.2624H66.3535V12.4668H80.1188V16.3473H71.1115Z" fill="#18213B"/>
<path d="M91.5898 35.6499C90.2639 35.0823 89.2159 34.2652 88.4458 33.199C87.6749 32.1318 87.2783 30.8727 87.2559 29.4199H92.354C92.4221 30.3956 92.7673 31.1677 93.3904 31.7345C94.0136 32.3022 94.8691 32.5856 95.9569 32.5856C97.0672 32.5856 97.9393 32.3196 98.5741 31.786C99.208 31.2524 99.5258 30.5551 99.5258 29.6924C99.5258 28.9893 99.3101 28.41 98.8802 27.9563C98.4488 27.5025 97.9111 27.1451 97.2655 26.8841C96.6199 26.6232 95.7304 26.3339 94.5978 26.0156C93.056 25.5618 91.8047 25.1138 90.8413 24.6708C89.8788 24.2287 89.0515 23.5596 88.3603 22.662C87.6691 21.7661 87.3239 20.5684 87.3239 19.0708C87.3239 17.6637 87.6749 16.4386 88.3777 15.3948C89.0797 14.3509 90.0655 13.5506 91.3342 12.9946C92.603 12.4386 94.0534 12.1601 95.6848 12.1601C98.1318 12.1601 100.121 12.756 101.65 13.9478C103.179 15.1388 104.023 16.8019 104.182 18.9345H98.9474C98.9018 18.1175 98.5566 17.4427 97.9111 16.9091C97.2655 16.3763 96.41 16.1095 95.3454 16.1095C94.416 16.1095 93.6742 16.3472 93.1191 16.8242C92.5632 17.3005 92.286 17.9936 92.286 18.9004C92.286 19.5362 92.4951 20.064 92.9149 20.4837C93.334 20.9042 93.855 21.2442 94.4782 21.5051C95.1014 21.7661 95.9793 22.067 97.1128 22.4069C98.6529 22.8616 99.9108 23.3153 100.885 23.7691C101.859 24.2229 102.697 24.9036 103.4 25.8112C104.102 26.7196 104.454 27.9106 104.454 29.3858C104.454 30.6573 104.125 31.8367 103.468 32.9264C102.811 34.016 101.848 34.8836 100.58 35.5303C99.3101 36.1777 97.8032 36.501 96.059 36.501C94.4044 36.501 92.915 36.2176 91.5898 35.6499Z" fill="#18213B"/>
<path d="M115.568 34.9351C113.709 33.8912 112.237 32.4442 111.149 30.5942C110.061 28.7449 109.518 26.6514 109.518 24.3134C109.518 21.9988 110.061 19.9169 111.149 18.0668C112.237 16.2176 113.709 14.7707 115.568 13.7259C117.425 12.6829 119.464 12.1602 121.686 12.1602C123.928 12.1602 125.973 12.683 127.82 13.7259C129.666 14.7706 131.128 16.2176 132.205 18.0668C133.28 19.9169 133.819 21.9988 133.819 24.3134C133.819 26.6514 133.28 28.7449 132.205 30.5942C131.128 32.4442 129.661 33.8912 127.803 34.9351C125.945 35.979 123.905 36.5009 121.686 36.5009C119.464 36.5009 117.425 35.9789 115.568 34.9351ZM125.458 31.2749C126.546 30.6282 127.395 29.7041 128.007 28.5006C128.618 27.2979 128.925 25.9025 128.925 24.3134C128.925 22.7252 128.618 21.3347 128.007 20.1429C127.395 18.9519 126.546 18.0385 125.458 17.4028C124.37 16.7678 123.113 16.4495 121.685 16.4495C120.257 16.4495 118.994 16.7678 117.895 17.4028C116.796 18.0386 115.941 18.9519 115.329 20.1429C114.718 21.3347 114.412 22.7252 114.412 24.3134C114.412 25.9025 114.718 27.2979 115.329 28.5006C115.941 29.7041 116.796 30.6282 117.895 31.2749C118.994 31.9223 120.257 32.2456 121.685 32.2456C123.113 32.2456 124.37 31.9223 125.458 31.2749Z" fill="#18213B"/>
<path d="M157.631 31.7819V36.2624H156.151C152.676 36.2624 150.164 34.8836 148.615 32.1267L145.829 27.7842H143.592V36.2624H138.844V12.4818H149.2C153.777 12.4818 157.253 15.8245 157.253 20.2702C157.253 23.8897 154.844 26.7154 151.369 27.5424L153.158 29.9901C153.984 31.162 155.188 31.782 156.668 31.782L157.631 31.7819ZM143.592 23.6478H149.097C150.955 23.6478 152.367 22.2008 152.367 20.3051C152.367 18.4094 150.955 16.9624 149.097 16.9624H143.592V23.6478Z" fill="#18213B"/>
<path d="M167.246 34.9351C165.388 33.8912 163.916 32.4442 162.829 30.5942C161.741 28.7449 161.197 26.6514 161.197 24.3134C161.197 21.9988 161.741 19.9169 162.829 18.0668C163.916 16.2176 165.388 14.7707 167.246 13.7259C169.104 12.6829 171.144 12.1602 173.364 12.1602C175.608 12.1602 177.653 12.683 179.5 13.7259C181.346 14.7706 182.807 16.2176 183.884 18.0668C184.96 19.9169 185.498 21.9988 185.498 24.3134C185.498 26.6514 184.96 28.7449 183.884 30.5942C182.807 32.4442 181.34 33.8912 179.482 34.9351C177.624 35.979 175.585 36.5009 173.364 36.5009C171.144 36.5009 169.104 35.9789 167.246 34.9351ZM177.137 31.2749C178.225 30.6282 179.075 29.7041 179.686 28.5006C180.298 27.2979 180.604 25.9025 180.604 24.3134C180.604 22.7252 180.298 21.3347 179.686 20.1429C179.075 18.9519 178.225 18.0385 177.137 17.4028C176.049 16.7678 174.792 16.4495 173.364 16.4495C171.937 16.4495 170.673 16.7678 169.575 17.4028C168.475 18.0386 167.621 18.9519 167.009 20.1429C166.397 21.3347 166.091 22.7252 166.091 24.3134C166.091 25.9025 166.397 27.2979 167.009 28.5006C167.621 29.7041 168.475 30.6282 169.575 31.2749C170.673 31.9223 171.937 32.2456 173.364 32.2456C174.792 32.2456 176.05 31.9223 177.137 31.2749Z" fill="#18213B"/>
</g>
<defs>
<clipPath id="clip0_4774_9589">
<rect width="185" height="44" fill="white" transform="translate(0.5)"/>
</clipPath>
</defs>
</svg>
